<svg xmlns="http://www.w3.org/2000/svg" width="148" height="35" viewBox="0 0 106 38">
  <defs>
    <style>
      .cls-3 {
        fill: #0047AB;
        stroke: #0047AB;
      }

      .cls-4 {
        fill: #0096FF;
        stroke: #0096FF;
      }
      .cls-5 {
        fill: #89CFF0;
        stroke: #89CFF0
      }
    </style>
  </defs>
  <path d="M 104.672 22.08 L 102.688 24 L 94.08 15.136 L 94.08 23.68 L 91.2 23.68 L 91.2 0 L 94.08 0 L 94.08 13.536 L 101.6 6.72 L 103.264 8.544 L 96.832 14.24 L 104.672 22.08 Z M 42.24 17.856 L 42.24 7.04 L 45.12 7.04 L 45.12 17.472 A 7.354 7.354 0 0 0 45.201 18.603 Q 45.293 19.194 45.49 19.67 A 3.244 3.244 0 0 0 45.952 20.464 A 2.689 2.689 0 0 0 47.588 21.431 A 4.098 4.098 0 0 0 48.384 21.504 Q 49.696 21.504 50.928 20.976 Q 52.16 20.448 53.12 19.552 L 53.12 7.04 L 56 7.04 L 56 19.36 A 4.992 4.992 0 0 0 56.033 19.953 Q 56.139 20.837 56.592 21.168 Q 57.184 21.6 57.888 21.6 L 57.28 23.84 Q 54.304 23.84 53.6 21.472 Q 52.48 22.624 51.008 23.344 Q 49.536 24.064 47.84 24.064 Q 46.4 24.064 45.12 23.456 A 4.621 4.621 0 0 1 43.357 21.972 A 5.845 5.845 0 0 1 43.04 21.488 A 5.197 5.197 0 0 1 42.507 20.178 Q 42.34 19.548 42.278 18.798 A 11.319 11.319 0 0 1 42.24 17.856 Z M 11.36 23.68 L 8.48 23.68 L 8.48 7.04 L 11.264 7.04 L 11.264 9.824 Q 12.16 8.48 13.552 7.568 Q 14.944 6.656 16.864 6.656 A 7.432 7.432 0 0 1 18.485 6.822 Q 20.115 7.186 21.072 8.352 A 5.889 5.889 0 0 1 22.225 10.713 Q 22.464 11.679 22.464 12.832 L 22.464 23.68 L 19.584 23.68 L 19.584 13.152 A 6.165 6.165 0 0 0 19.474 11.955 Q 19.279 10.969 18.736 10.272 A 2.745 2.745 0 0 0 16.727 9.199 A 3.86 3.86 0 0 0 16.384 9.184 Q 14.912 9.184 13.6 10.224 Q 12.288 11.264 11.36 12.672 L 11.36 23.68 Z M 25.984 22.336 L 27.2 19.936 A 5.938 5.938 0 0 0 28.206 20.616 Q 28.7 20.884 29.287 21.101 A 9.843 9.843 0 0 0 29.296 21.104 A 7.703 7.703 0 0 0 31.732 21.564 A 8.789 8.789 0 0 0 32 21.568 Q 33.726 21.568 34.635 21.019 A 2.476 2.476 0 0 0 34.704 20.976 A 2.384 2.384 0 0 0 35.195 20.562 A 1.617 1.617 0 0 0 35.616 19.456 A 2.279 2.279 0 0 0 35.516 18.769 A 1.988 1.988 0 0 0 35.28 18.272 A 2.043 2.043 0 0 0 34.983 17.922 Q 34.636 17.59 34.048 17.264 A 9.108 9.108 0 0 0 33.41 16.946 Q 32.733 16.638 31.776 16.303 A 33.156 33.156 0 0 0 31.456 16.192 A 14.917 14.917 0 0 1 30.049 15.634 Q 28.737 15.03 27.952 14.288 A 3.624 3.624 0 0 1 26.898 12.369 A 5.374 5.374 0 0 1 26.784 11.232 Q 26.784 9.312 28.464 7.984 A 5.685 5.685 0 0 1 30.396 7.009 Q 31.214 6.766 32.195 6.69 A 12.009 12.009 0 0 1 33.12 6.656 A 13.054 13.054 0 0 1 34.543 6.73 Q 35.305 6.814 35.968 6.992 A 12.406 12.406 0 0 1 37.291 7.426 A 9.955 9.955 0 0 1 38.208 7.84 L 37.408 10.208 A 7.849 7.849 0 0 0 36.234 9.643 A 9.661 9.661 0 0 0 35.44 9.376 A 8.008 8.008 0 0 0 34.005 9.105 A 10.188 10.188 0 0 0 32.992 9.056 Q 31.925 9.056 31.186 9.333 A 2.723 2.723 0 0 0 30.464 9.728 A 2.983 2.983 0 0 0 30.03 10.136 Q 29.6 10.636 29.6 11.2 Q 29.6 11.968 30.272 12.512 Q 30.944 13.056 32.896 13.696 A 21.681 21.681 0 0 1 34.516 14.303 Q 36.056 14.958 36.939 15.689 A 4.783 4.783 0 0 1 37.312 16.032 A 4.351 4.351 0 0 1 38.555 18.991 A 5.727 5.727 0 0 1 38.56 19.232 Q 38.56 21.472 36.752 22.768 A 6.417 6.417 0 0 1 34.711 23.719 Q 33.859 23.956 32.852 24.03 A 12.935 12.935 0 0 1 31.904 24.064 A 12.797 12.797 0 0 1 30.028 23.932 A 9.903 9.903 0 0 1 28.496 23.584 A 9.883 9.883 0 0 1 27.267 23.109 Q 26.542 22.768 25.984 22.336 Z M 87.264 16.544 L 75.616 16.544 Q 75.884 18.72 77.069 20.008 A 4.794 4.794 0 0 0 77.248 20.192 A 4.526 4.526 0 0 0 79.688 21.411 A 6.407 6.407 0 0 0 80.8 21.504 Q 82.24 21.504 83.392 21.2 Q 84.544 20.896 85.6 20.416 L 86.272 22.88 A 13.046 13.046 0 0 1 84.885 23.4 A 16.596 16.596 0 0 1 83.68 23.728 A 12.453 12.453 0 0 1 82.051 23.99 A 16.648 16.648 0 0 1 80.448 24.064 A 9.062 9.062 0 0 1 77.969 23.742 A 6.755 6.755 0 0 1 74.768 21.776 A 7.527 7.527 0 0 1 73.102 18.723 Q 72.78 17.604 72.699 16.272 A 15.08 15.08 0 0 1 72.672 15.36 Q 72.672 12.864 73.616 10.896 A 7.885 7.885 0 0 1 75.221 8.63 A 7.324 7.324 0 0 1 76.256 7.792 A 6.735 6.735 0 0 1 79.539 6.681 A 8.386 8.386 0 0 1 80.192 6.656 Q 82.592 6.656 84.176 7.696 Q 85.76 8.736 86.56 10.496 Q 87.36 12.256 87.36 14.368 A 24.065 24.065 0 0 1 87.267 16.511 A 22.061 22.061 0 0 1 87.264 16.544 Z M 62.368 17.952 L 62.368 10.144 L 59.488 10.144 L 59.488 7.648 L 62.432 7.648 L 63.04 2.4 L 65.248 2.4 L 65.248 7.648 L 69.856 7.648 L 69.856 10.144 L 65.248 10.144 L 65.248 18.176 A 6.899 6.899 0 0 0 65.302 19.071 Q 65.453 20.225 66.032 20.768 Q 66.816 21.504 67.904 21.504 Q 68.704 21.504 69.424 21.248 Q 70.144 20.992 70.752 20.64 L 71.552 22.944 Q 70.912 23.328 69.824 23.696 Q 68.736 24.064 67.552 24.064 A 5.865 5.865 0 0 1 65.894 23.841 A 4.459 4.459 0 0 1 63.76 22.48 A 5.157 5.157 0 0 1 62.727 20.591 Q 62.483 19.814 62.405 18.874 A 11.129 11.129 0 0 1 62.368 17.952 Z M 3.04 23.68 L 0 23.68 L 0 1.28 L 3.04 1.28 L 3.04 23.68 Z M 75.584 14.208 L 84.704 14.208 Q 84.704 12.442 84.063 11.266 A 3.975 3.975 0 0 0 83.488 10.464 A 3.996 3.996 0 0 0 81.261 9.256 A 5.886 5.886 0 0 0 80.128 9.152 A 4.346 4.346 0 0 0 78.492 9.451 A 4.008 4.008 0 0 0 77.056 10.448 A 4.853 4.853 0 0 0 76.115 11.949 Q 75.845 12.608 75.697 13.415 A 10.247 10.247 0 0 0 75.584 14.208 Z" vector-effect="non-scaling-stroke"/>
  
  <circle class="cls-3" cx="-13" cy="22.969" r="6.328"/>
  <circle class="cls-4" cx="-13" cy="15.969" r="6.328"/>
  <circle class="cls-5" cx="-13" cy="6.969" r="6.328"/>
</svg>
